<?xml version="1.0" encoding="UTF-8"?> <svg xmlns="http://www.w3.org/2000/svg" viewBox="0 0 350 77.68"><g data-name="Mode Isolation"><path fill="#e95125" d="M77.63 37.1a37.23 37.23 0 00-1.94-10.56A38.87 38.87 0 0017.52 6.37a.93.93 0 00-.47.92v34.86a15.94 15.94 0 00.28 3.16c1.42 7.29 5.83 12.13 12.55 15a15.79 15.79 0 005.9 1.17c.29 0 .73-.15.73.43v7.44c0 .31-.12.44-.43.41-1.57-.15-3.15-.21-4.71-.45a25.79 25.79 0 01-14.73-7.65 27.69 27.69 0 01-8-20V14.73h-.17a2.69 2.69 0 00-.27.32A38.27 38.27 0 00.54 45.22 36.93 36.93 0 0012.1 67c9.57 8.91 20.9 12.22 33.77 10a37 37 0 0021.3-11.61A38.08 38.08 0 0077.63 37.1zm-15 21.76a20.79 20.79 0 01-6.24 6.39A23.7 23.7 0 0143 69.53h-3v-8.06h1.27a21.11 21.11 0 006.52-.76A9.51 9.51 0 0053.6 47a10.4 10.4 0 00-5.54-4.56c-2.4-.91-4.89-1.57-7.36-2.31a64.75 64.75 0 01-8.5-2.63c-3.41-1.56-6.28-3.75-7.85-7.23-3-6.56-1.93-13.36 4.14-18.25A22.61 22.61 0 0140 7.17a21.81 21.81 0 0118.24 5.7 12.33 12.33 0 014.3 9.66c0 .5-.11.69-.66.69h-9.22v-1.15a5.64 5.64 0 00-2.49-4.92 12.53 12.53 0 00-6.86-2.35A11.06 11.06 0 0035 17.63c-3 2.69-3.59 8.34.23 11.35A18.52 18.52 0 0041.65 32c3.4 1 6.83 1.93 10.21 3a20.61 20.61 0 017.89 4.65 15.61 15.61 0 014.7 9.35 14.46 14.46 0 01-1.8 9.86zM162 39.71a24.41 24.41 0 00-.15-3.2 12.58 12.58 0 10-24.65 4.86 12 12 0 008.51 9.43A11.82 11.82 0 00158 47.85l.73-.68c.19 2.49.11 4.73-1.31 6.69a8.82 8.82 0 01-8.52 4 9.18 9.18 0 01-7.68-5.58.86.86 0 00-.58-.48c-.85-.06-1.71 0-2.78 0 .42 1 .7 1.76 1.1 2.51 3.2 5.91 10.65 7.6 16.18 5.17 4.42-1.95 7-5.19 6.87-10.29-.09-3.19-.01-6.35-.01-9.48zm-12.38 8.52a9.49 9.49 0 01-9.52-9.61 9.38 9.38 0 1118.74-.12c-.04 5.5-4.09 9.72-9.23 9.73z"></path><path fill="#757575" d="M349.92 39.9H328a7.63 7.63 0 001.06 3.6 9.31 9.31 0 008.37 4.91 8.55 8.55 0 008.19-4.77 1 1 0 011-.58h2.56c-.2 4.21-6.94 8.9-12.24 8.57a13 13 0 01-12.23-14.2c.5-6.09 6.3-12.22 13.68-11.54a12.88 12.88 0 0111.53 14.01zm-3.21-3c-.22-4.27-4.8-7.87-9.68-7.78-5.2.09-8.76 4.48-9 7.78z"></path><path fill="#e95125" d="M122.42 25.92c-6.21-.8-12.68 4.2-13.7 10.6a13 13 0 0010.47 14.93 12.4 12.4 0 0014-8.38h-2.57a1.12 1.12 0 00-1.13.64 13 13 0 01-2 2.57c-4 3.62-10.91 2.59-14-2a8.9 8.9 0 01-1.52-4.33h21.92a12.78 12.78 0 00-11.47-14.03zm-10.42 11c.18-3.1 3.54-7.66 9-7.78 4.85-.11 9.23 3.34 9.68 7.78z"></path><path fill="#757575" d="M244.9 47.48v12.05h-3.09v-.75-19.91a12.93 12.93 0 019.71-12.53A12.51 12.51 0 01266.8 37a12.83 12.83 0 01-9.28 14.27 12.14 12.14 0 01-12-3.34l-.4-.38s-.06-.05-.22-.07zm9.38-18.33c-5-.28-9.4 4.57-9.39 9.6a9.58 9.58 0 009.3 9.79 9.69 9.69 0 009.55-9.68c0-5.26-4.39-9.92-9.46-9.71z"></path><path fill="#e95125" d="M190.61 38.37a12.57 12.57 0 00-16.7-11.74 12.73 12.73 0 00-8.15 14.87 12 12 0 008.37 9.5 11.6 11.6 0 0012.14-2.64l1.16-1.08V51h3.17v-.93c0-3.89-.06-7.79.01-11.7zM178.13 48.5c-5.12 0-9.33-4.41-9.47-9.68a9.62 9.62 0 019.51-9.75 9.52 9.52 0 019.24 9.66c.01 5.27-4.25 9.76-9.28 9.77z"></path><path fill="#757575" d="M295.19 51h-3.11v-3.77c-.34.33-.55.51-.74.7a12.15 12.15 0 01-13.47 2.71 13 13 0 011-24.13 12.63 12.63 0 0116.25 10.06 9.07 9.07 0 01.08 1.28V50.3c.04.21.01.42-.01.7zm-21.85-12.31a9.68 9.68 0 009.41 9.81c5 0 9.31-4.44 9.32-9.72a9.37 9.37 0 10-18.73-.09zM324 33.88h-3.19c-.28 0-.6-.38-.79-.66a9.82 9.82 0 00-11.67-3.52 10.1 10.1 0 00-6.35 9.6 9.88 9.88 0 007.19 8.81 10.16 10.16 0 0011-3.74 1.33 1.33 0 01.9-.47c1-.06 1.92 0 2.89 0-.64 4.16-6.82 7.84-12.56 7.69-6.23-.16-12-5.23-12.57-11.55-.71-8.21 5.66-13 10.76-13.94 6.03-1.1 12.74 2.44 14.39 7.78z"></path><path fill="#e95125" d="M223.09 26.57c-.93 2.23-1.8 4.32-2.68 6.4Q215 45.92 209.56 58.84a1 1 0 01-1.11.75c-.82-.06-1.65 0-2.61 0 .13-.36.22-.65.33-.93 1-2.56 2-5.11 3-7.69a2.05 2.05 0 000-1.34q-4.32-11-8.69-22.07c-.11-.27-.2-.54-.35-.95h3.24c.2 0 .42.44.53.71q3.56 8.85 7.1 17.68c.11.3.25.59.44 1 .28-.64.52-1.14.73-1.65q3.63-8.52 7.23-17a1 1 0 011.18-.79c.8.06 1.59.01 2.51.01z"></path><path fill="#757575" d="M226.34 43.85a4.32 4.32 0 001.55 3.51 4.2 4.2 0 004.69.84 3.86 3.86 0 002.54-3.66 3.77 3.77 0 00-2.24-3.93 46.47 46.47 0 00-4.51-1.61 6.51 6.51 0 01-4-8.72 7.23 7.23 0 017.35-4.28 6.86 6.86 0 015.84 4.68 16.06 16.06 0 01.27 1.83h-3.42a3 3 0 00-2.31-3.22 3.61 3.61 0 00-4.55 1.94 3.34 3.34 0 001.73 4.51c1.32.63 2.75 1 4.13 1.53a7 7 0 014.74 4.53 7.52 7.52 0 01-5.24 9.57 7.72 7.72 0 01-9.61-5.52c-.49-2-.46-2 1.6-2z"></path><path fill="#e95125" d="M101 18.67h3.13v22.6c0 6.38 3.14 10.75 8.8 13.45.29.13.59.25.89.36 1.51.57 1.51.57 1.51 2.2v1.65c-1.26-.48-2.38-.8-3.42-1.3-6.22-3-10-7.91-10.89-14.84A12.89 12.89 0 01101 41V19.56v-.89zM197.27 51h-3.11V18h3.11z"></path></g></svg> 