<svg width="350" height="78" viewBox="0 0 350 78" fill="none" xmlns="http://www.w3.org/2000/svg">
<g clip-path="url(#clip0_783_2546)">
<path d="M77.6311 37.1C77.498 33.5048 76.8446 29.9478 75.6911 26.54C73.8034 20.9003 70.6467 15.7689 66.464 11.541C62.2814 7.31304 57.1843 4.10126 51.5652 2.15289C45.9462 0.204527 39.9549 -0.428467 34.0528 0.302644C28.1506 1.03375 22.4949 3.10947 17.5211 6.37C17.3606 6.45971 17.2302 6.59498 17.1466 6.75874C17.0629 6.92249 17.0297 7.10736 17.0511 7.29V42.15C17.0391 43.21 17.1329 44.2686 17.3311 45.31C18.7511 52.6 23.1611 57.44 29.8811 60.31C31.7546 61.0744 33.7576 61.4716 35.7811 61.48C36.0711 61.48 36.5111 61.33 36.5111 61.91V69.35C36.5111 69.66 36.3911 69.79 36.0811 69.76C34.5111 69.61 32.9311 69.55 31.3711 69.31C25.7522 68.4528 20.574 65.7635 16.6411 61.66C14.0391 59.0298 11.9906 55.9049 10.6166 52.4698C9.24253 49.0347 8.57081 45.3591 8.64109 41.66V14.73H8.47109C8.37291 14.8295 8.28264 14.9365 8.20109 15.05C4.88187 19.2615 2.48476 24.1236 1.16517 29.321C-0.154425 34.5184 -0.367046 39.9352 0.541089 45.22C1.78534 53.59 5.86627 61.2788 12.1011 67C21.6711 75.91 33.0011 79.22 45.8711 77C54.0741 75.6336 61.5775 71.5437 67.1711 65.39C70.7493 61.6354 73.5227 57.1894 75.3214 52.3248C77.1201 47.4601 77.906 42.2793 77.6311 37.1V37.1ZM62.6311 58.86C61.0386 61.4169 58.9095 63.5972 56.3911 65.25C52.4633 67.998 47.7946 69.4903 43.0011 69.53H40.0011V61.47H41.2711C43.4708 61.5582 45.6707 61.3017 47.7911 60.71C49.1704 60.3273 50.4454 59.6381 51.5212 58.6939C52.5971 57.7497 53.4459 56.5749 54.0044 55.257C54.5629 53.9391 54.8167 52.5121 54.7468 51.0824C54.677 49.6527 54.2854 48.2572 53.6011 47C52.3539 44.8709 50.3902 43.2547 48.0611 42.44C45.6611 41.53 43.1711 40.87 40.7011 40.13C37.8108 39.4493 34.9708 38.5705 32.2011 37.5C28.7911 35.94 25.9211 33.75 24.3511 30.27C21.3511 23.71 22.4211 16.91 28.4911 12.02C31.7963 9.35467 35.7851 7.67386 40.0011 7.17C43.2746 6.67325 46.6183 6.92834 49.7786 7.91594C52.9389 8.90353 55.8329 10.5977 58.2411 12.87C59.6294 14.0605 60.7354 15.5449 61.4792 17.2157C62.2229 18.8864 62.5856 20.7017 62.5411 22.53C62.5411 23.03 62.4311 23.22 61.8811 23.22H52.6611V22.07C52.7019 21.1054 52.4943 20.1464 52.0584 19.2849C51.6224 18.4235 50.9725 17.6884 50.1711 17.15C48.166 15.7077 45.7794 14.8901 43.3111 14.8C41.8061 14.6796 40.2925 14.8685 38.8633 15.3552C37.4341 15.8419 36.1197 16.6161 35.0011 17.63C32.0011 20.32 31.4111 25.97 35.2311 28.98C37.1565 30.391 39.3365 31.4165 41.6511 32C45.0511 33 48.4811 33.93 51.8611 35C54.8065 35.9387 57.5031 37.5279 59.7511 39.65C62.3469 42.133 64.0069 45.4354 64.4511 49C65.0458 52.3962 64.4074 55.893 62.6511 58.86H62.6311ZM162.001 39.71C162.021 38.6412 161.971 37.5722 161.851 36.51C161.61 34.8188 161.027 33.1945 160.138 31.7359C159.249 30.2774 158.072 29.0153 156.679 28.0265C155.286 27.0377 153.706 26.343 152.035 25.9847C150.365 25.6264 148.639 25.612 146.963 25.9425C145.287 26.2729 143.696 26.9412 142.287 27.9067C140.878 28.8721 139.68 30.1145 138.766 31.558C137.853 33.0016 137.243 34.616 136.974 36.3029C136.705 37.9898 136.782 39.7139 137.201 41.37C137.595 43.5806 138.602 45.6363 140.106 47.3033C141.61 48.9703 143.552 50.1818 145.711 50.8C147.829 51.5219 150.108 51.6278 152.283 51.1056C154.459 50.5834 156.442 49.4545 158.001 47.85L158.731 47.17C158.921 49.66 158.841 51.9 157.421 53.86C156.524 55.2632 155.247 56.3836 153.739 57.0915C152.231 57.7994 150.554 58.0658 148.901 57.86C147.234 57.7181 145.637 57.1232 144.284 56.1398C142.93 55.1563 141.871 53.8217 141.221 52.28C141.167 52.1612 141.087 52.0563 140.986 51.9732C140.886 51.89 140.768 51.8308 140.641 51.8C139.791 51.74 138.931 51.8 137.861 51.8C138.281 52.8 138.561 53.56 138.961 54.31C142.161 60.22 149.611 61.91 155.141 59.48C159.561 57.53 162.141 54.29 162.011 49.19C161.921 46 162.001 42.84 162.001 39.71V39.71ZM149.621 48.23C148.362 48.2341 147.115 47.9876 145.952 47.505C144.789 47.0224 143.734 46.3132 142.848 45.4188C141.962 44.5245 141.263 43.4627 140.792 42.2955C140.32 41.1283 140.085 39.8788 140.101 38.62C140.035 37.3538 140.226 36.0874 140.663 34.8972C141.101 33.7071 141.774 32.6179 142.644 31.6955C143.514 30.7731 144.562 30.0366 145.725 29.5306C146.887 29.0246 148.14 28.7595 149.408 28.7514C150.676 28.7432 151.933 28.9923 153.101 29.4833C154.27 29.9744 155.328 30.6974 156.209 31.6086C157.091 32.5198 157.779 33.6003 158.231 34.7847C158.683 35.9692 158.891 37.2331 158.841 38.5C158.801 44 154.751 48.22 149.611 48.23H149.621Z" fill="#E95125"/>
<path d="M349.92 39.8997H328C328.048 41.1692 328.412 42.4067 329.06 43.4997C329.869 45.0086 331.078 46.2652 332.554 47.1314C334.031 47.9977 335.718 48.44 337.43 48.4097C339.113 48.511 340.789 48.1121 342.246 47.2634C343.703 46.4146 344.877 45.1539 345.62 43.6397C345.706 43.4514 345.848 43.2945 346.027 43.1906C346.207 43.0867 346.413 43.0409 346.62 43.0597H349.18C348.98 47.2697 342.24 51.9597 336.94 51.6297C335.192 51.5338 333.482 51.086 331.912 50.3133C330.342 49.5407 328.944 48.4589 327.802 47.1329C326.66 45.807 325.798 44.2641 325.266 42.5967C324.735 40.9294 324.546 39.172 324.71 37.4297C325.21 31.3397 331.01 25.2097 338.39 25.8897C341.771 26.2313 344.881 27.8955 347.04 30.5198C349.2 33.1441 350.235 36.5156 349.92 39.8997V39.8997ZM346.71 36.8997C346.49 32.6297 341.91 29.0297 337.03 29.1197C331.83 29.2097 328.27 33.5997 328.03 36.8997H346.71Z" fill="#757575"/>
<path d="M122.421 25.9202C116.211 25.1202 109.741 30.1202 108.721 36.5202C108.158 39.8848 108.941 43.3358 110.899 46.1288C112.858 48.9218 115.836 50.833 119.191 51.4502C122.144 51.9834 125.189 51.4281 127.764 49.8872C130.338 48.3463 132.266 45.9243 133.191 43.0702H130.621C130.39 43.0462 130.156 43.095 129.954 43.2097C129.751 43.3244 129.59 43.4993 129.491 43.7102C128.935 44.6473 128.263 45.5107 127.491 46.2802C123.491 49.9002 116.581 48.8702 113.491 44.2802C112.615 42.9945 112.091 41.5016 111.971 39.9502H133.891C134.064 38.275 133.904 36.5823 133.42 34.9692C132.936 33.3561 132.139 31.8545 131.073 30.5507C130.007 29.2469 128.694 28.1666 127.209 27.372C125.724 26.5773 124.097 26.0839 122.421 25.9202V25.9202ZM112.001 36.9202C112.181 33.8202 115.541 29.2602 121.001 29.1402C125.851 29.0302 130.231 32.4802 130.681 36.9202H112.001Z" fill="#E95125"/>
<path d="M244.902 47.4797V59.5297H241.813V58.7797V38.8697C241.811 35.9997 242.764 33.2107 244.522 30.9422C246.28 28.6736 248.743 27.0544 251.523 26.3397C253.234 25.9375 255.011 25.9004 256.737 26.2309C258.464 26.5614 260.101 27.2521 261.543 28.2579C262.984 29.2637 264.198 30.562 265.104 32.0682C266.011 33.5745 266.589 35.2548 266.802 36.9997C267.267 40.1015 266.58 43.266 264.87 45.8953C263.16 48.5246 260.546 50.4365 257.522 51.2697C255.407 51.8489 253.174 51.8441 251.061 51.2561C248.949 50.668 247.034 49.5185 245.523 47.9297L245.122 47.5497C245.122 47.5497 245.062 47.4997 244.902 47.4797V47.4797ZM254.283 29.1497C249.283 28.8697 244.883 33.7197 244.893 38.7497C244.836 41.2788 245.782 43.7276 247.524 45.5618C249.267 47.3959 251.664 48.4664 254.193 48.5397C256.736 48.5029 259.164 47.4672 260.951 45.6561C262.737 43.845 263.74 41.4038 263.742 38.8597C263.742 33.5997 259.353 28.9397 254.283 29.1497Z" fill="#757575"/>
<path d="M190.612 38.3697C190.591 36.3753 190.095 34.4146 189.167 32.6494C188.238 30.8843 186.903 29.3654 185.271 28.2184C183.64 27.0713 181.759 26.329 179.783 26.0528C177.808 25.7765 175.795 25.9743 173.912 26.6297C170.964 27.6744 168.504 29.7676 167 32.5102C165.497 35.2528 165.056 38.4528 165.762 41.4997C166.132 43.7061 167.113 45.7648 168.592 47.4434C170.071 49.1221 171.99 50.3539 174.132 50.9997C176.197 51.756 178.435 51.9094 180.585 51.442C182.734 50.9745 184.707 49.9056 186.272 48.3597L187.432 47.2797V50.9997H190.602V50.0697C190.602 46.1797 190.542 42.2797 190.612 38.3697V38.3697ZM178.132 48.4997C173.012 48.4997 168.802 44.0897 168.662 38.8197C168.644 37.5547 168.877 36.2987 169.346 35.1237C169.815 33.9487 170.511 32.8777 171.394 31.972C172.278 31.0664 173.331 30.3439 174.494 29.8458C175.657 29.3478 176.907 29.0841 178.172 29.0697C180.672 29.143 183.043 30.1975 184.772 32.0052C186.501 33.8129 187.449 36.2285 187.412 38.7297C187.422 43.9997 183.162 48.4897 178.132 48.4997Z" fill="#E95125"/>
<path d="M295.193 51H292.083V47.23C291.743 47.56 291.533 47.74 291.343 47.93C289.633 49.6883 287.432 50.8882 285.027 51.3719C282.623 51.8556 280.129 51.6004 277.873 50.64C275.499 49.5776 273.499 47.8277 272.13 45.6165C270.761 43.4053 270.087 40.8344 270.195 38.2361C270.302 35.6378 271.187 33.1315 272.734 31.0411C274.281 28.9508 276.419 27.3724 278.873 26.51C280.603 25.9676 282.43 25.8041 284.229 26.0307C286.028 26.2572 287.757 26.8685 289.299 27.823C290.84 28.7775 292.159 30.0527 293.164 31.562C294.168 33.0714 294.837 34.7794 295.123 36.57C295.179 36.9942 295.206 37.422 295.203 37.85V50.3C295.243 50.51 295.213 50.72 295.193 51V51ZM273.343 38.69C273.307 41.2336 274.275 43.6888 276.036 45.5246C277.797 47.3604 280.21 48.4293 282.753 48.5C287.753 48.5 292.063 44.06 292.073 38.78C292.119 37.5249 291.913 36.2732 291.466 35.0994C291.02 33.9256 290.341 32.8535 289.472 31.947C288.603 31.0405 287.56 30.318 286.406 29.8224C285.252 29.3269 284.01 29.0684 282.754 29.0624C281.498 29.0563 280.254 29.3029 279.095 29.7873C277.936 30.2717 276.887 30.9842 276.009 31.8823C275.131 32.7804 274.442 33.8459 273.984 35.0154C273.526 36.1849 273.308 37.4345 273.343 38.69V38.69ZM324.003 33.88H320.813C320.533 33.88 320.213 33.5 320.023 33.22C318.758 31.4045 316.918 30.0691 314.8 29.4302C312.682 28.7913 310.41 28.8864 308.353 29.7C306.443 30.4632 304.811 31.7914 303.676 33.5069C302.541 35.2225 301.958 37.2436 302.003 39.3C302.148 41.3303 302.916 43.2662 304.203 44.8431C305.49 46.42 307.233 47.561 309.193 48.11C311.189 48.686 313.313 48.6362 315.28 47.9675C317.247 47.2988 318.961 46.0432 320.193 44.37C320.419 44.1005 320.742 43.9315 321.093 43.9C322.093 43.84 323.013 43.9 323.983 43.9C323.343 48.06 317.163 51.74 311.423 51.59C305.193 51.43 299.423 46.36 298.853 40.04C298.143 31.83 304.513 27.04 309.613 26.1C315.643 25 322.353 28.54 324.003 33.88V33.88Z" fill="#757575"/>
<path d="M223.093 26.5699C222.163 28.7999 221.293 30.8899 220.413 32.9699C216.806 41.6032 213.189 50.2266 209.563 58.8399C209.503 59.0801 209.357 59.2897 209.152 59.4282C208.947 59.5668 208.698 59.6244 208.453 59.5899C207.633 59.5299 206.803 59.5899 205.843 59.5899C205.973 59.2299 206.063 58.9399 206.173 58.6599C207.173 56.0999 208.173 53.5499 209.173 50.9699C209.323 50.5358 209.323 50.0639 209.173 49.6299C206.293 42.2966 203.396 34.9399 200.483 27.5599C200.373 27.2899 200.283 27.0199 200.133 26.6099H203.373C203.573 26.6099 203.793 27.0499 203.903 27.3199C206.276 33.2199 208.643 39.1132 211.003 44.9999C211.113 45.2999 211.253 45.5899 211.443 45.9999C211.723 45.3599 211.963 44.8599 212.173 44.3499C214.593 38.6699 217.003 33.0032 219.403 27.3499C219.428 27.2203 219.478 27.0969 219.551 26.9869C219.624 26.877 219.719 26.7825 219.828 26.7091C219.938 26.6356 220.061 26.5846 220.191 26.559C220.32 26.5334 220.453 26.5337 220.583 26.5599C221.383 26.6199 222.173 26.5699 223.093 26.5699V26.5699Z" fill="#E95125"/>
<path d="M226.34 43.8501C226.311 44.515 226.435 45.1778 226.704 45.7866C226.973 46.3955 227.379 46.934 227.89 47.3601C228.495 47.9587 229.267 48.3595 230.105 48.5095C230.942 48.6595 231.805 48.5516 232.58 48.2001C233.33 47.9273 233.977 47.429 234.432 46.7735C234.886 46.1181 235.127 45.3379 235.12 44.5401C235.222 43.7309 235.059 42.9104 234.655 42.2018C234.251 41.4932 233.628 40.9347 232.88 40.6101C231.406 39.9963 229.9 39.4589 228.37 39.0001C227.512 38.7229 226.72 38.2704 226.046 37.6712C225.372 37.072 224.83 36.3392 224.453 35.5194C224.077 34.6995 223.876 33.8104 223.861 32.9085C223.847 32.0066 224.02 31.1115 224.37 30.2801C224.986 28.8815 226.029 27.714 227.349 26.945C228.67 26.1761 230.2 25.8453 231.72 26.0001C233.042 26.1309 234.298 26.6428 235.335 27.4736C236.371 28.3044 237.145 29.4183 237.56 30.6801C237.685 31.2844 237.775 31.8954 237.83 32.5101H234.41C234.482 31.7843 234.288 31.0571 233.863 30.4644C233.437 29.8718 232.811 29.4543 232.1 29.2901C231.237 28.9735 230.286 28.9979 229.441 29.3584C228.595 29.7189 227.919 30.3883 227.55 31.2301C227.357 31.6382 227.249 32.0812 227.232 32.5324C227.215 32.9836 227.289 33.4335 227.451 33.8551C227.612 34.2766 227.858 34.661 228.172 34.985C228.487 35.309 228.864 35.5659 229.28 35.7401C230.6 36.3701 232.03 36.7401 233.41 37.2701C234.51 37.5809 235.517 38.1562 236.343 38.9458C237.17 39.7355 237.79 40.7155 238.15 41.8001C238.462 42.772 238.573 43.7973 238.476 44.8135C238.379 45.8297 238.077 46.8155 237.586 47.7109C237.096 48.6063 236.429 49.3925 235.625 50.0216C234.821 50.6507 233.897 51.1095 232.91 51.3701C231.917 51.655 230.876 51.7374 229.85 51.6126C228.824 51.4878 227.834 51.1582 226.937 50.6434C226.041 50.1286 225.257 49.439 224.633 48.6157C224.008 47.7923 223.555 46.8519 223.3 45.8501C222.81 43.8501 222.84 43.8501 224.9 43.8501H226.34Z" fill="#757575"/>
<path d="M101.002 18.67H104.132V41.27C104.132 47.65 107.272 52.02 112.932 54.72C113.222 54.85 113.522 54.97 113.822 55.08C115.332 55.65 115.332 55.65 115.332 57.28V58.93C114.072 58.45 112.952 58.13 111.912 57.63C105.692 54.63 101.912 49.72 101.022 42.79C100.974 42.1945 100.968 41.5964 101.002 41V19.56V18.67V18.67ZM197.272 51H194.162V18H197.272V51Z" fill="#E95125"/>
</g>
<defs>
<clipPath id="clip0_783_2546">
<rect width="350" height="77.68" fill="white"/>
</clipPath>
</defs>
</svg>
